<svg xmlns="http://www.w3.org/2000/svg" version="1.1" xmlns:xlink="http://www.w3.org/1999/xlink" xmlns:svgjs="http://svgjs.dev/svgjs" width="2000" height="1247" viewBox="0 0 2000 1247"><g transform="matrix(1,0,0,1,-1.2121212121212466,0.504858299595071)"><svg viewBox="0 0 396 247" data-background-color="#575c5f" preserveAspectRatio="xMidYMid meet" height="1247" width="2000" xmlns="http://www.w3.org/2000/svg" xmlns:xlink="http://www.w3.org/1999/xlink"><g id="tight-bounds" transform="matrix(1,0,0,1,0.2400000000000091,-0.09999999999999432)"><svg viewBox="0 0 395.52 247.2" height="247.2" width="395.52"><g><svg></svg></g><g><svg viewBox="0 0 395.52 247.2" height="247.2" width="395.52"><mask id="edf3d244-627b-4d4d-9a58-db60649222ef"><rect width="395.52" height="247.2" fill="white"></rect><g transform="matrix(1,0,0,1,128.08890226972864,37.08)" id="clone"><svg viewBox="0 0 139.3421954605427 173.04" height="173.04" width="139.3421954605427"><g><svg viewBox="0 0 139.3421954605427 173.04" height="173.04" width="139.3421954605427"><g><svg viewBox="0 0 139.3421954605427 173.04" height="173.04" width="139.3421954605427"><g><svg viewBox="0 0 139.3421954605427 173.04" height="173.04" width="139.3421954605427"><g id="SvgjsG2245"><svg viewBox="0 0 139.3421954605427 173.04" height="173.04" width="139.3421954605427" id="SvgjsSvg2244"><g><svg viewBox="0 0 139.3421954605427 173.04" height="173.04" width="139.3421954605427"><g transform="matrix(1,0,0,1,0,0)"><svg width="139.3421954605427" viewBox="-0.9818180947519997 -35.4 31.281818094752 38.6" height="173.04" data-palette-color="#dedad7"><path d="M8-32.1L8-32.1Q11.45-32.1 15.6-32.25 19.75-32.4 23.7-32.4L23.7-32.4Q23.95-30.55 24.35-29 24.75-27.45 25.1-25.8L25.1-25.8Q24.85-25.55 24.25-25.55L24.25-25.55Q23.6-25.55 23.55-25.9L23.55-25.9Q22.75-28.85 21.3-29.65 19.85-30.45 17.9-30.45L17.9-30.45 13.7-30.45Q13.4-30.45 12.6-30.43 11.8-30.4 11.1-30.3 10.4-30.2 10.3-29.95L10.3-29.95Q10.15-29.45 10.13-28.65 10.1-27.85 10.1-27L10.1-27Q10.1-26.65 10.1-26.45L10.1-26.45 10.1-17.35Q10.1-17.15 10.75-17.1 11.4-17.05 12.2-17.05L12.2-17.05 14.75-17.05Q16.5-17.05 17.48-17.15 18.45-17.25 18.9-17.6 19.35-17.95 19.6-18.65 19.85-19.35 20.15-20.55L20.15-20.55Q20.2-20.9 20.85-20.9L20.85-20.9Q21.45-20.9 21.7-20.65L21.7-20.65 21.7-11.45Q21.5-11.25 20.9-11.25L20.9-11.25Q20.3-11.25 20.15-11.6L20.15-11.6Q19.8-13 19.58-13.63 19.35-14.25 19.18-14.48 19-14.7 18.75-14.85L18.75-14.85Q18.5-15.05 17.6-15.13 16.7-15.2 15.63-15.23 14.55-15.25 13.6-15.25L13.6-15.25Q12.95-15.25 12.13-15.23 11.3-15.2 10.7-15.13 10.1-15.05 10.1-14.8L10.1-14.8 10.1-5.5Q10.1-5.4 10.1-5.2L10.1-5.2Q10.1-4.5 10.13-3.4 10.15-2.3 10.35-2.15L10.35-2.15Q10.85-1.8 11.58-1.73 12.3-1.65 13.85-1.65L13.85-1.65 16.2-1.65Q17.95-1.65 19.65-2 21.35-2.35 22.35-3L22.35-3Q23.5-3.7 24.15-5.03 24.8-6.35 25.4-7.9L25.4-7.9Q25.5-8.2 26.1-8.2L26.1-8.2Q27-8.2 27.3-7.9L27.3-7.9Q26.6-5.9 25.78-3.65 24.95-1.4 24.7 0.2L24.7 0.2Q20.75 0.2 16.85 0.1 12.95 0 8.05 0L8.05 0Q6.35 0 5 0.08 3.65 0.15 2.2 0.15L2.2 0.15Q2-0.05 2.02-0.55 2.05-1.05 2.2-1.25L2.2-1.25Q2.5-1.25 3.3-1.33 4.1-1.4 4.83-1.6 5.55-1.8 5.6-2.05L5.6-2.05Q5.8-2.65 5.83-3.6 5.85-4.55 5.85-5.65L5.85-5.65 5.85-26.5Q5.85-27.6 5.83-28.58 5.8-29.55 5.6-30.15L5.6-30.15Q5.55-30.45 4.83-30.6 4.1-30.75 3.3-30.83 2.5-30.9 2.2-30.9L2.2-30.9Q2.05-31.1 2.02-31.6 2-32.1 2.2-32.3L2.2-32.3Q3.7-32.25 5.15-32.18 6.6-32.1 8-32.1Z" opacity="1" transform="matrix(1,0,0,1,0,0)" fill="black" class="wordmark-text-0" id="SvgjsPath2243" stroke-width="5" stroke="black" stroke-linejoin="round"></path></svg></g></svg></g></svg></g></svg></g></svg></g></svg></g></svg></g></mask><g mask="url(#edf3d244-627b-4d4d-9a58-db60649222ef)"><g><path d="M161.185 35.721v0c12.633 0 26.547-0.275 41.743-0.824 15.196-0.549 30.025-0.824 44.489-0.824v0c0.915 6.774 2.105 12.999 3.57 18.675 1.465 5.676 2.838 11.534 4.119 17.575v0c-0.915 0.915-2.472 1.373-4.669 1.373v0c-2.38 0-3.662-0.641-3.844-1.922v0c-2.929-10.802-7.049-17.667-12.358-20.597-5.309-2.929-11.534-4.394-18.675-4.393v0h-23.068c-1.098 0-3.112 0.037-6.041 0.109-2.929 0.11-5.676 0.348-8.239 0.714-2.563 0.366-4.028 1.007-4.394 1.923v0c-0.549 1.831-0.86 4.211-0.934 7.14-0.11 2.929-0.165 5.95-0.165 9.062v0c0 1.282 0 2.289 0 3.021v0 49.981c0 0.732 1.19 1.19 3.571 1.374 2.38 0.183 5.035 0.275 7.964 0.274v0h14.005c6.408 0 11.406-0.183 14.995-0.549 3.552-0.366 6.152-1.19 7.799-2.472 1.648-1.282 2.929-3.204 3.845-5.767 0.915-2.563 1.922-6.042 3.021-10.435v0c0.183-1.282 1.465-1.922 3.844-1.923v0c2.197 0 3.753 0.458 4.669 1.373v0 50.531c-0.732 0.732-2.197 1.098-4.394 1.098v0c-2.197 0-3.57-0.641-4.119-1.922v0c-1.282-5.126-2.325-8.843-3.131-11.15-0.842-2.27-1.575-3.826-2.197-4.668-0.659-0.806-1.446-1.483-2.362-2.032v0c-0.915-0.732-3.021-1.245-6.316-1.538-3.295-0.256-6.902-0.439-10.82-0.55-3.955-0.073-7.671-0.11-11.15-0.109v0c-2.38 0-5.071 0.037-8.074 0.109-3.039 0.11-5.657 0.293-7.854 0.55-2.197 0.293-3.295 0.897-3.295 1.812v0 51.08c0 0.366 0 0.915 0 1.648v0c0 2.563 0.055 5.859 0.164 9.886 0.073 4.028 0.476 6.316 1.209 6.866v0c1.831 1.282 4.083 2.051 6.755 2.306 2.636 0.293 6.792 0.439 12.468 0.44v0h12.907c6.408 0 12.724-0.641 18.949-1.923 6.225-1.282 11.168-3.112 14.83-5.492v0c4.211-2.563 7.506-6.28 9.886-11.15 2.38-4.833 4.669-10.088 6.866-15.763v0c0.366-1.098 1.648-1.648 3.845-1.648v0c3.295 0 5.492 0.549 6.59 1.648v0c-2.563 7.323-5.346 15.104-8.348 23.343-3.039 8.239-5.016 15.287-5.932 21.146v0c-14.463 0-28.835-0.183-43.116-0.549-14.28-0.366-30.391-0.549-48.333-0.55v0c-6.225 0-11.809 0.146-16.752 0.44-4.943 0.256-10.069 0.384-15.379 0.384v0c-0.732-0.732-1.062-2.014-0.988-3.845 0.11-1.831 0.439-3.112 0.988-3.844v0c1.098 0 3.112-0.146 6.042-0.44 2.929-0.256 5.73-0.751 8.403-1.483 2.636-0.732 4.046-1.556 4.23-2.471v0c0.732-2.197 1.153-5.035 1.263-8.514 0.073-3.479 0.11-7.232 0.11-11.259v0-114.517c0-4.028-0.037-7.836-0.11-11.425-0.11-3.552-0.531-6.426-1.263-8.623v0c-0.183-1.098-1.593-1.922-4.23-2.471-2.673-0.549-5.474-0.97-8.403-1.264-2.929-0.256-4.943-0.384-6.042-0.384v0c-0.549-0.732-0.879-2.014-0.988-3.845-0.073-1.831 0.256-3.112 0.988-3.845v0c5.492 0.183 10.893 0.403 16.203 0.66 5.309 0.293 10.527 0.439 15.653 0.439z" fill="#000000" fill-rule="nonzero" stroke="none" stroke-width="1" stroke-linecap="butt" stroke-linejoin="miter" stroke-miterlimit="10" stroke-dasharray="" stroke-dashoffset="0" font-family="none" font-weight="none" font-size="none" text-anchor="none" style="mix-blend-mode: normal" data-fill-palette-color="tertiary"></path></g></g><g transform="matrix(1,0,0,1,128.08890226972864,37.08)"><svg viewBox="0 0 139.3421954605427 173.04" height="173.04" width="139.3421954605427"><g><svg viewBox="0 0 139.3421954605427 173.04" height="173.04" width="139.3421954605427"><g><svg viewBox="0 0 139.3421954605427 173.04" height="173.04" width="139.3421954605427"><g><svg viewBox="0 0 139.3421954605427 173.04" height="173.04" width="139.3421954605427"><g id="textblocktransform"><svg viewBox="0 0 139.3421954605427 173.04" height="173.04" width="139.3421954605427" id="textblock"><g><svg viewBox="0 0 139.3421954605427 173.04" height="173.04" width="139.3421954605427"><g transform="matrix(1,0,0,1,0,0)"><svg width="139.3421954605427" viewBox="-0.9818180947519997 -35.4 31.281818094752 38.6" height="173.04" data-palette-color="#dedad7"><path d="M8-32.1L8-32.1Q11.45-32.1 15.6-32.25 19.75-32.4 23.7-32.4L23.7-32.4Q23.95-30.55 24.35-29 24.75-27.45 25.1-25.8L25.1-25.8Q24.85-25.55 24.25-25.55L24.25-25.55Q23.6-25.55 23.55-25.9L23.55-25.9Q22.75-28.85 21.3-29.65 19.85-30.45 17.9-30.45L17.9-30.45 13.7-30.45Q13.4-30.45 12.6-30.43 11.8-30.4 11.1-30.3 10.4-30.2 10.3-29.95L10.3-29.95Q10.15-29.45 10.13-28.65 10.1-27.85 10.1-27L10.1-27Q10.1-26.65 10.1-26.45L10.1-26.45 10.1-17.35Q10.1-17.15 10.75-17.1 11.4-17.05 12.2-17.05L12.2-17.05 14.75-17.05Q16.5-17.05 17.48-17.15 18.45-17.25 18.9-17.6 19.35-17.95 19.6-18.65 19.85-19.35 20.15-20.55L20.15-20.55Q20.2-20.9 20.85-20.9L20.85-20.9Q21.45-20.9 21.7-20.65L21.7-20.65 21.7-11.45Q21.5-11.25 20.9-11.25L20.9-11.25Q20.3-11.25 20.15-11.6L20.15-11.6Q19.8-13 19.58-13.63 19.35-14.25 19.18-14.48 19-14.7 18.75-14.85L18.75-14.85Q18.5-15.05 17.6-15.13 16.7-15.2 15.63-15.23 14.55-15.25 13.6-15.25L13.6-15.25Q12.95-15.25 12.13-15.23 11.3-15.2 10.7-15.13 10.1-15.05 10.1-14.8L10.1-14.8 10.1-5.5Q10.1-5.4 10.1-5.2L10.1-5.2Q10.1-4.5 10.13-3.4 10.15-2.3 10.35-2.15L10.35-2.15Q10.85-1.8 11.58-1.73 12.3-1.65 13.85-1.65L13.85-1.65 16.2-1.65Q17.95-1.65 19.65-2 21.35-2.35 22.35-3L22.35-3Q23.5-3.7 24.15-5.03 24.8-6.35 25.4-7.9L25.4-7.9Q25.5-8.2 26.1-8.2L26.1-8.2Q27-8.2 27.3-7.9L27.3-7.9Q26.6-5.9 25.78-3.65 24.95-1.4 24.7 0.2L24.7 0.2Q20.75 0.2 16.85 0.1 12.95 0 8.05 0L8.05 0Q6.35 0 5 0.08 3.65 0.15 2.2 0.15L2.2 0.15Q2-0.05 2.02-0.55 2.05-1.05 2.2-1.25L2.2-1.25Q2.5-1.25 3.3-1.33 4.1-1.4 4.83-1.6 5.55-1.8 5.6-2.05L5.6-2.05Q5.8-2.65 5.83-3.6 5.85-4.55 5.85-5.65L5.85-5.65 5.85-26.5Q5.85-27.6 5.83-28.58 5.8-29.55 5.6-30.15L5.6-30.15Q5.55-30.45 4.83-30.6 4.1-30.75 3.3-30.83 2.5-30.9 2.2-30.9L2.2-30.9Q2.05-31.1 2.02-31.6 2-32.1 2.2-32.3L2.2-32.3Q3.7-32.25 5.15-32.18 6.6-32.1 8-32.1Z" opacity="1" transform="matrix(1,0,0,1,0,0)" fill="#000000" class="wordmark-text-0" data-fill-palette-color="primary" id="text-0"></path></svg></g></svg></g></svg></g></svg></g></svg></g></svg></g></svg></g></svg></g><defs></defs></svg><rect width="395.52" height="247.2" fill="none" stroke="none" visibility="hidden"></rect></g></svg></g></svg>